<?xml version="1.0" encoding="UTF-8" standalone="no"?>
<!-- Generator: Adobe Illustrator 23.0.4, SVG Export Plug-In . SVG Version: 6.00 Build 0)  -->

<svg
   xmlns:dc="http://purl.org/dc/elements/1.1/"
   xmlns:cc="http://creativecommons.org/ns#"
   xmlns:rdf="http://www.w3.org/1999/02/22-rdf-syntax-ns#"
   xmlns:svg="http://www.w3.org/2000/svg"
   xmlns="http://www.w3.org/2000/svg"
   xmlns:sodipodi="http://sodipodi.sourceforge.net/DTD/sodipodi-0.dtd"
   xmlns:inkscape="http://www.inkscape.org/namespaces/inkscape"
   enable-background="new 0 0 235.6 183.9"
   id="Layer_1"
   version="1.1"
   viewBox="0 0 235.6 183.9"
   x="0px"
   xml:space="preserve"
   y="0px"
   sodipodi:docname="background.svg"
   inkscape:version="0.92.4 5da689c313, 2019-01-14"
   inkscape:export-filename="/home/ranu/Documents/University/UnB/CS/1st period/Sistemas de Informação/Atividades/Exercício 7 (Projeto filmagens)/background.png"
   inkscape:export-xdpi="1377.51"
   inkscape:export-ydpi="1377.51"><metadata
   id="metadata3777"><rdf:RDF><cc:Work
       rdf:about=""><dc:format>image/svg+xml</dc:format><dc:type
         rdf:resource="http://purl.org/dc/dcmitype/StillImage" /><dc:title /></cc:Work></rdf:RDF></metadata><defs
   id="defs3775" /><sodipodi:namedview
   pagecolor="#ffffff"
   bordercolor="#666666"
   borderopacity="1"
   objecttolerance="10"
   gridtolerance="10"
   guidetolerance="10"
   inkscape:pageopacity="0"
   inkscape:pageshadow="2"
   inkscape:window-width="1920"
   inkscape:window-height="1017"
   id="namedview3773"
   showgrid="false"
   inkscape:zoom="3.3134375"
   inkscape:cx="66.42619"
   inkscape:cy="91.949997"
   inkscape:window-x="0"
   inkscape:window-y="30"
   inkscape:window-maximized="1"
   inkscape:current-layer="Layer_1" />
<linearGradient
   gradientUnits="userSpaceOnUse"
   id="GRADIENT"
   x1="-1.819e-12"
   x2="235.58"
   y1="91.945"
   y2="91.945">
	<stop
   offset="0"
   stop-color="#DC85FF"
   id="stop3765" />
	<stop
   offset="1"
   stop-color="#FFD22E"
   id="stop3767" />
</linearGradient>
<path
   style="fill:#f9dbbd;fill-rule:nonzero;fill-opacity:1"
   d="M 45.041016 -0.072265625 C 44.396729 -0.061865234 43.749609 -0.0375 43.099609 0 C 19.699609 1.4 4.7369516e-15 20.500391 0 43.900391 C 0 71.100391 17.500391 82.800781 30.900391 87.800781 C 39.000391 90.800781 43.899219 99.200783 42.699219 107.80078 C 41.899219 113.70078 41.299609 120.00039 41.599609 124.90039 C 43.399609 156.60039 69.2 182.20078 101 183.80078 C 128.6 185.20078 152.39922 168.7 162.19922 145 C 165.59922 136.8 173.69961 131.59922 182.59961 131.69922 L 182.80078 131.69922 C 212.10078 131.69922 235.79922 107.99922 235.69922 78.699219 C 235.49922 49.599219 211.50039 25.700781 182.40039 25.800781 C 180.40039 25.800781 178.49961 25.899609 176.59961 26.099609 C 162.79961 27.699609 148.89961 24.100391 138.09961 15.400391 C 130.29961 9.2003898 120.39961 5.4003906 109.59961 5.4003906 C 102.99961 5.4003906 96.600391 6.8003906 90.900391 9.4003906 C 84.500391 12.300391 76.999219 11.599219 71.199219 7.6992188 C 63.699219 2.6367187 54.705322 -0.22827148 45.041016 -0.072265625 z "
   id="path3770" />
</svg>